<?xml version="1.0" encoding="UTF-8"?>
<svg id="Calque_1" data-name="Calque 1" xmlns="http://www.w3.org/2000/svg" viewBox="0 0 534.48 534.48">
  <defs>
    <style>
      .cls-1, .cls-2 {
        stroke-width: 0px;
      }

      .cls-2 {
        fill: #fff;
      }
    </style>
  </defs>
  <path class="cls-2" d="m0,534.48C0,356.32,0,178.16,0,0c178.16,0,356.32,0,534.48,0,0,178.16,0,356.32,0,534.48-178.16,0-356.32,0-534.48,0Zm474.1-61.72V87.08H62.24v385.69h411.86Z"/>
  <path class="cls-1" d="m474.1,472.76H62.24V87.08h411.86v385.69Zm-3.1-79.57V90.33H65.21v302.87h405.79Z"/>
  <path class="cls-2" d="m471,393.2H65.21V90.33h405.79v302.87Zm-115.34-22.57v-78.85h-34.84v-13.86h34.86v-77.92h-35.23v-13.92h35.32v-78.3h-52.76v43.12c-6.33-3.61-12.4-7.08-18.99-10.85v-32.29h-52.7c0,14.3.06,28.28-.08,42.27-.02,1.82-.6,4.07-1.75,5.37-9.56,10.81-13.69,23.63-13.72,37.75-.13,57.75-.05,115.5-.04,173.25,0,1.37,0,2.75,0,4.25h139.95ZM88.49,185.88h52.42v-78.1h-52.42v78.1Zm123.38.23v-78.41h-52.12v78.41h52.12Zm215.7,0v-78.42h-52.13v78.42h52.13Zm-338.87,105.96v78.42h52.15v-78.42h-52.15Zm123.4.22h-52.43v78.11h52.43v-78.11Zm163.34-.23v78.42h52.13v-78.42h-52.13ZM88.75,200.27v77.55h52.12v-77.55h-52.12Zm123.35.19h-52.43v77.24h52.43v-77.24Zm215.47,77.47v-77.54h-52.12v77.54h52.12Z"/>
  <path class="cls-1" d="m355.66,370.63h-139.95c0-1.5,0-2.88,0-4.25,0-57.75-.08-115.5.04-173.25.03-14.11,4.16-26.93,13.72-37.75,1.16-1.31,1.73-3.55,1.75-5.37.14-13.98.08-27.97.08-42.27h52.7v32.29c6.6,3.77,12.67,7.23,18.99,10.85v-43.12h52.76v78.3h-35.32v13.92h35.23v77.92h-34.86v13.86h34.84v78.85Zm-50.75-261.31c0,13.76-.11,27.14.11,40.51.04,2.17,1.31,4.42,2.39,6.44,3.31,6.17,7.05,12.12,10.12,18.4,1.45,2.97,1.75,6.51,2.52,9.62h34v-74.96h-49.15Zm49.1,259.52v-74.84h-33.27v74.84h33.27Zm.06-92.7v-74.03h-33.25v74.03h33.25Zm-120.84-166.81v42.29c14.68-12.08,30.88-15.75,48.95-11.4v-30.9h-48.95Z"/>
  <path class="cls-1" d="m88.49,185.88v-78.1h52.42v78.1h-52.42Zm50.67-1.55v-74.84h-48.85v74.84h48.85Z"/>
  <path class="cls-1" d="m211.87,186.11h-52.12v-78.41h52.12v78.41Zm-1.67-1.78v-74.84h-48.85v74.84h48.85Z"/>
  <path class="cls-1" d="m427.58,186.11h-52.13v-78.42h52.13v78.42Zm-1.67-1.79v-74.84h-48.86v74.84h48.86Z"/>
  <path class="cls-1" d="m88.7,292.07h52.15v78.42h-52.15v-78.42Zm50.47,76.77v-74.84h-48.86v74.84h48.86Z"/>
  <path class="cls-1" d="m212.11,292.29v78.11h-52.43v-78.11h52.43Zm-1.83,76.55v-74.92h-48.86v74.92h48.86Z"/>
  <path class="cls-1" d="m375.45,292.06h52.13v78.42h-52.13v-78.42Zm1.67,1.79v74.84h48.86v-74.84h-48.86Z"/>
  <path class="cls-1" d="m88.75,200.27h52.12v77.55h-52.12v-77.55Zm50.42,75.87v-73.97h-48.87v73.97h48.87Z"/>
  <path class="cls-1" d="m212.11,200.47v77.24h-52.43v-77.24h52.43Zm-50.68,1.56v73.97h48.86v-73.97h-48.86Z"/>
  <path class="cls-1" d="m427.57,277.94h-52.12v-77.54h52.12v77.54Zm-1.65-1.81v-73.97h-48.9v73.97h48.9Z"/>
  <path class="cls-2" d="m304.91,109.31h49.15v74.96h-34c-.78-3.11-1.07-6.65-2.52-9.62-3.07-6.28-6.81-12.23-10.12-18.4-1.08-2.01-2.36-4.27-2.39-6.44-.22-13.37-.11-26.75-.11-40.51Z"/>
  <path class="cls-2" d="m354.01,368.84h-33.27v-74.84h33.27v74.84Z"/>
  <path class="cls-2" d="m354.07,276.14h-33.25v-74.03h33.25v74.03Z"/>
  <path class="cls-2" d="m233.23,109.33h48.95v30.9c-18.06-4.35-34.26-.69-48.95,11.4v-42.29Z"/>
  <path class="cls-2" d="m139.16,184.33h-48.85v-74.84h48.85v74.84Z"/>
  <path class="cls-2" d="m210.2,184.33h-48.85v-74.84h48.85v74.84Z"/>
  <path class="cls-2" d="m425.9,184.33h-48.86v-74.84h48.86v74.84Z"/>
  <path class="cls-2" d="m139.17,368.84h-48.86v-74.84h48.86v74.84Z"/>
  <path class="cls-2" d="m210.28,368.84h-48.86v-74.92h48.86v74.92Z"/>
  <path class="cls-2" d="m377.12,293.85h48.86v74.84h-48.86v-74.84Z"/>
  <path class="cls-2" d="m139.18,276.15h-48.87v-73.97h48.87v73.97Z"/>
  <path class="cls-2" d="m161.42,202.03h48.86v73.97h-48.86v-73.97Z"/>
  <path class="cls-2" d="m425.92,276.13h-48.9v-73.97h48.9v73.97Z"/>
</svg>